<svg xmlns="http://www.w3.org/2000/svg" viewBox="0 0 64 64">
  <rect width="64" height="64" rx="12" fill="#ff2fb0"/>
  <g fill="none" stroke="#000" stroke-width="5" stroke-linecap="round" stroke-linejoin="round">
    <path d="M32 9c9.5 0 15 7 15 15 0 5.5-3 9.5-7 12H24c-4-2.5-7-6.5-7-12 0-8 5.5-15 15-15z" fill="#000"/>
    <path d="M23 36c-2 6-8 8-13 7M41 36c2 6 8 8 13 7M27 37c-1 8-5 12-9 15M37 37c1 8 5 12 9 15M31 38c-1 7 0 12 3 16"/>
  </g>
  <circle cx="26" cy="26" r="3.2" fill="#ff2fb0"/>
  <circle cx="38" cy="26" r="3.2" fill="#ff2fb0"/>
</svg>
