<svg xmlns="http://www.w3.org/2000/svg" viewBox="0 0 460 220" width="460" height="220" fill="none" stroke="#27221b" stroke-width="1.6" stroke-linejoin="round" stroke-linecap="round">
<path d="M20,110 C20,60 70,30 130,30 L330,30 C390,30 440,60 440,110 C440,160 390,190 330,190 L130,190 C70,190 20,160 20,110 Z" fill="none" stroke="#27221b" stroke-width="1.2" opacity=".7"/>
<path d="M60,110 C60,80 100,70 150,70 L310,70 C360,70 400,80 400,110 C400,140 360,150 310,150 L150,150 C100,150 60,140 60,110 Z" stroke="#27221b" stroke-width=".9" stroke-dasharray="3 3" opacity=".5"/>
<circle cx="187.1" cy="135.7" r="1.4" fill="#1f5f5b" stroke="none" opacity=".85"/><circle cx="75.0" cy="72.5" r="2.3" fill="#1f5f5b" stroke="none" opacity=".85"/><circle cx="89.0" cy="143.7" r="2.1" fill="#1f5f5b" stroke="none" opacity=".85"/><circle cx="84.6" cy="115.0" r="1.8" fill="#1f5f5b" stroke="none" opacity=".85"/><circle cx="405.9" cy="96.4" r="1.5" fill="#1f5f5b" stroke="none" opacity=".85"/><circle cx="162.1" cy="91.1" r="2.5" fill="#1f5f5b" stroke="none" opacity=".85"/><circle cx="114.1" cy="70.4" r="2.0" fill="#1f5f5b" stroke="none" opacity=".85"/><circle cx="365.5" cy="89.8" r="1.5" fill="#1f5f5b" stroke="none" opacity=".85"/><circle cx="377.3" cy="131.2" r="1.5" fill="#1f5f5b" stroke="none" opacity=".85"/><circle cx="348.6" cy="142.2" r="1.5" fill="#1f5f5b" stroke="none" opacity=".85"/><circle cx="286.4" cy="70.7" r="1.3" fill="#1f5f5b" stroke="none" opacity=".85"/><circle cx="164.4" cy="86.8" r="1.8" fill="#1f5f5b" stroke="none" opacity=".85"/><circle cx="288.7" cy="157.1" r="2.5" fill="#1f5f5b" stroke="none" opacity=".85"/><circle cx="345.9" cy="82.9" r="1.4" fill="#1f5f5b" stroke="none" opacity=".85"/><circle cx="279.5" cy="116.4" r="2.1" fill="#1f5f5b" stroke="none" opacity=".85"/><circle cx="67.4" cy="67.0" r="2.5" fill="#1f5f5b" stroke="none" opacity=".85"/><circle cx="270.6" cy="137.4" r="1.3" fill="#1f5f5b" stroke="none" opacity=".85"/><circle cx="108.8" cy="103.7" r="2.3" fill="#1f5f5b" stroke="none" opacity=".85"/><circle cx="207.9" cy="150.4" r="2.0" fill="#1f5f5b" stroke="none" opacity=".85"/><circle cx="107.6" cy="86.9" r="2.2" fill="#1f5f5b" stroke="none" opacity=".85"/><circle cx="371.6" cy="106.6" r="1.9" fill="#1f5f5b" stroke="none" opacity=".85"/><circle cx="345.4" cy="78.9" r="1.7" fill="#1f5f5b" stroke="none" opacity=".85"/><circle cx="275.1" cy="129.1" r="1.3" fill="#1f5f5b" stroke="none" opacity=".85"/><circle cx="320.1" cy="137.0" r="2.6" fill="#1f5f5b" stroke="none" opacity=".85"/><circle cx="337.0" cy="75.7" r="2.3" fill="#1f5f5b" stroke="none" opacity=".85"/><circle cx="424.0" cy="88.8" r="1.2" fill="#1f5f5b" stroke="none" opacity=".85"/><circle cx="180.1" cy="79.6" r="1.4" fill="#1f5f5b" stroke="none" opacity=".85"/><circle cx="275.6" cy="68.9" r="1.5" fill="#1f5f5b" stroke="none" opacity=".85"/><circle cx="358.3" cy="81.8" r="1.5" fill="#1f5f5b" stroke="none" opacity=".85"/><circle cx="211.9" cy="137.3" r="1.9" fill="#1f5f5b" stroke="none" opacity=".85"/><circle cx="373.9" cy="96.2" r="1.9" fill="#1f5f5b" stroke="none" opacity=".85"/><circle cx="316.8" cy="104.6" r="2.2" fill="#1f5f5b" stroke="none" opacity=".85"/><circle cx="79.4" cy="149.6" r="2.2" fill="#1f5f5b" stroke="none" opacity=".85"/><circle cx="407.1" cy="136.6" r="2.0" fill="#1f5f5b" stroke="none" opacity=".85"/><circle cx="77.5" cy="99.5" r="1.4" fill="#1f5f5b" stroke="none" opacity=".85"/><circle cx="182.3" cy="83.0" r="1.8" fill="#1f5f5b" stroke="none" opacity=".85"/><circle cx="314.4" cy="115.8" r="1.5" fill="#1f5f5b" stroke="none" opacity=".85"/><circle cx="341.5" cy="142.9" r="2.4" fill="#1f5f5b" stroke="none" opacity=".85"/><circle cx="43.2" cy="126.1" r="2.5" fill="#1f5f5b" stroke="none" opacity=".85"/><circle cx="133.5" cy="68.3" r="2.3" fill="#1f5f5b" stroke="none" opacity=".85"/><circle cx="175.6" cy="96.2" r="2.3" fill="#1f5f5b" stroke="none" opacity=".85"/><circle cx="183.7" cy="67.8" r="1.5" fill="#1f5f5b" stroke="none" opacity=".85"/><circle cx="168.2" cy="137.7" r="1.7" fill="#1f5f5b" stroke="none" opacity=".85"/><circle cx="129.6" cy="127.5" r="1.9" fill="#1f5f5b" stroke="none" opacity=".85"/><circle cx="140.9" cy="65.4" r="1.2" fill="#1f5f5b" stroke="none" opacity=".85"/><circle cx="223.0" cy="81.6" r="1.9" fill="#1f5f5b" stroke="none" opacity=".85"/><circle cx="181.9" cy="146.1" r="1.6" fill="#1f5f5b" stroke="none" opacity=".85"/><circle cx="395.0" cy="121.1" r="1.8" fill="#1f5f5b" stroke="none" opacity=".85"/><circle cx="340.9" cy="72.6" r="2.0" fill="#1f5f5b" stroke="none" opacity=".85"/><circle cx="368.6" cy="115.7" r="1.6" fill="#1f5f5b" stroke="none" opacity=".85"/><circle cx="68.4" cy="120.4" r="1.5" fill="#1f5f5b" stroke="none" opacity=".85"/><circle cx="179.3" cy="115.9" r="2.5" fill="#1f5f5b" stroke="none" opacity=".85"/><circle cx="299.3" cy="112.7" r="2.4" fill="#1f5f5b" stroke="none" opacity=".85"/><circle cx="153.4" cy="94.3" r="2.1" fill="#1f5f5b" stroke="none" opacity=".85"/><circle cx="251.7" cy="71.0" r="1.8" fill="#1f5f5b" stroke="none" opacity=".85"/><circle cx="359.4" cy="73.9" r="2.2" fill="#1f5f5b" stroke="none" opacity=".85"/><circle cx="303.6" cy="85.3" r="2.6" fill="#1f5f5b" stroke="none" opacity=".85"/><circle cx="129.3" cy="108.8" r="2.6" fill="#1f5f5b" stroke="none" opacity=".85"/><circle cx="193.6" cy="115.4" r="1.8" fill="#1f5f5b" stroke="none" opacity=".85"/><circle cx="351.1" cy="101.6" r="1.9" fill="#1f5f5b" stroke="none" opacity=".85"/><circle cx="221.2" cy="136.0" r="2.5" fill="#1f5f5b" stroke="none" opacity=".85"/><circle cx="360.8" cy="141.8" r="1.7" fill="#1f5f5b" stroke="none" opacity=".85"/><circle cx="158.9" cy="94.5" r="1.8" fill="#1f5f5b" stroke="none" opacity=".85"/><circle cx="407.8" cy="135.8" r="2.4" fill="#1f5f5b" stroke="none" opacity=".85"/><circle cx="45.5" cy="142.3" r="1.8" fill="#1f5f5b" stroke="none" opacity=".85"/><circle cx="190.6" cy="154.3" r="2.2" fill="#1f5f5b" stroke="none" opacity=".85"/><circle cx="394.2" cy="143.4" r="2.5" fill="#1f5f5b" stroke="none" opacity=".85"/><circle cx="201.3" cy="117.9" r="2.3" fill="#1f5f5b" stroke="none" opacity=".85"/><circle cx="182.4" cy="72.0" r="1.7" fill="#1f5f5b" stroke="none" opacity=".85"/><circle cx="413.8" cy="99.0" r="1.6" fill="#1f5f5b" stroke="none" opacity=".85"/><circle cx="139.0" cy="101.7" r="2.1" fill="#1f5f5b" stroke="none" opacity=".85"/><circle cx="167.0" cy="66.1" r="1.5" fill="#1f5f5b" stroke="none" opacity=".85"/><circle cx="97.8" cy="145.6" r="1.4" fill="#1f5f5b" stroke="none" opacity=".85"/><circle cx="344.4" cy="77.2" r="2.3" fill="#1f5f5b" stroke="none" opacity=".85"/><circle cx="67.8" cy="152.0" r="2.0" fill="#1f5f5b" stroke="none" opacity=".85"/><circle cx="224.4" cy="89.3" r="2.2" fill="#1f5f5b" stroke="none" opacity=".85"/><circle cx="270.4" cy="83.9" r="2.4" fill="#1f5f5b" stroke="none" opacity=".85"/><circle cx="249.6" cy="148.3" r="1.4" fill="#1f5f5b" stroke="none" opacity=".85"/><circle cx="312.8" cy="125.5" r="2.4" fill="#1f5f5b" stroke="none" opacity=".85"/><circle cx="383.7" cy="117.2" r="2.0" fill="#1f5f5b" stroke="none" opacity=".85"/><circle cx="336.8" cy="76.9" r="2.0" fill="#1f5f5b" stroke="none" opacity=".85"/><circle cx="344.7" cy="123.2" r="2.0" fill="#1f5f5b" stroke="none" opacity=".85"/><circle cx="417.9" cy="106.4" r="1.9" fill="#1f5f5b" stroke="none" opacity=".85"/><circle cx="86.9" cy="103.5" r="1.5" fill="#1f5f5b" stroke="none" opacity=".85"/><circle cx="380.8" cy="89.8" r="1.7" fill="#1f5f5b" stroke="none" opacity=".85"/><circle cx="389.0" cy="155.3" r="1.7" fill="#1f5f5b" stroke="none" opacity=".85"/><circle cx="230.0" cy="132.8" r="1.5" fill="#1f5f5b" stroke="none" opacity=".85"/><circle cx="94.8" cy="139.1" r="2.2" fill="#1f5f5b" stroke="none" opacity=".85"/><circle cx="266.6" cy="88.4" r="2.4" fill="#1f5f5b" stroke="none" opacity=".85"/><circle cx="388.9" cy="129.1" r="1.6" fill="#1f5f5b" stroke="none" opacity=".85"/><circle cx="354.5" cy="158.7" r="1.7" fill="#1f5f5b" stroke="none" opacity=".85"/><circle cx="195.6" cy="81.7" r="1.3" fill="#1f5f5b" stroke="none" opacity=".85"/><circle cx="149.1" cy="155.0" r="1.3" fill="#1f5f5b" stroke="none" opacity=".85"/><circle cx="191.6" cy="112.0" r="1.4" fill="#1f5f5b" stroke="none" opacity=".85"/><circle cx="374.7" cy="138.7" r="2.5" fill="#1f5f5b" stroke="none" opacity=".85"/><circle cx="160.2" cy="74.9" r="2.4" fill="#1f5f5b" stroke="none" opacity=".85"/>
<circle cx="272.5" cy="169.3" r="1.7" fill="#a5432a" stroke="none" opacity=".85"/><circle cx="383.0" cy="63.2" r="1.6" fill="#a5432a" stroke="none" opacity=".85"/><circle cx="35.5" cy="118.3" r="2.5" fill="#a5432a" stroke="none" opacity=".85"/><circle cx="257.1" cy="60.8" r="2.2" fill="#a5432a" stroke="none" opacity=".85"/><circle cx="289.9" cy="54.7" r="2.5" fill="#a5432a" stroke="none" opacity=".85"/><circle cx="167.6" cy="62.5" r="1.9" fill="#a5432a" stroke="none" opacity=".85"/><circle cx="256.8" cy="177.4" r="1.3" fill="#a5432a" stroke="none" opacity=".85"/><circle cx="218.8" cy="51.2" r="2.0" fill="#a5432a" stroke="none" opacity=".85"/><circle cx="305.1" cy="176.9" r="2.5" fill="#a5432a" stroke="none" opacity=".85"/><circle cx="142.7" cy="176.1" r="1.6" fill="#a5432a" stroke="none" opacity=".85"/><circle cx="211.1" cy="62.2" r="2.0" fill="#a5432a" stroke="none" opacity=".85"/><circle cx="139.7" cy="44.9" r="2.5" fill="#a5432a" stroke="none" opacity=".85"/><circle cx="411.4" cy="105.4" r="2.1" fill="#a5432a" stroke="none" opacity=".85"/><circle cx="339.1" cy="170.6" r="1.4" fill="#a5432a" stroke="none" opacity=".85"/><circle cx="165.9" cy="173.0" r="2.0" fill="#a5432a" stroke="none" opacity=".85"/><circle cx="179.0" cy="163.4" r="1.4" fill="#a5432a" stroke="none" opacity=".85"/><circle cx="131.3" cy="49.7" r="2.1" fill="#a5432a" stroke="none" opacity=".85"/><circle cx="313.7" cy="146.4" r="1.7" fill="#a5432a" stroke="none" opacity=".85"/><circle cx="256.3" cy="61.5" r="1.4" fill="#a5432a" stroke="none" opacity=".85"/><circle cx="253.3" cy="52.2" r="1.3" fill="#a5432a" stroke="none" opacity=".85"/><circle cx="83.6" cy="92.7" r="2.4" fill="#a5432a" stroke="none" opacity=".85"/><circle cx="145.6" cy="57.1" r="2.3" fill="#a5432a" stroke="none" opacity=".85"/><circle cx="203.4" cy="178.8" r="2.0" fill="#a5432a" stroke="none" opacity=".85"/><circle cx="383.4" cy="71.4" r="1.9" fill="#a5432a" stroke="none" opacity=".85"/><circle cx="304.7" cy="71.7" r="1.9" fill="#a5432a" stroke="none" opacity=".85"/><circle cx="360.0" cy="154.2" r="2.2" fill="#a5432a" stroke="none" opacity=".85"/><circle cx="118.8" cy="47.9" r="2.5" fill="#a5432a" stroke="none" opacity=".85"/><circle cx="379.1" cy="136.7" r="1.7" fill="#a5432a" stroke="none" opacity=".85"/><circle cx="264.3" cy="51.5" r="1.6" fill="#a5432a" stroke="none" opacity=".85"/><circle cx="167.4" cy="151.3" r="2.1" fill="#a5432a" stroke="none" opacity=".85"/><circle cx="50.0" cy="90.5" r="2.5" fill="#a5432a" stroke="none" opacity=".85"/><circle cx="356.1" cy="74.9" r="1.9" fill="#a5432a" stroke="none" opacity=".85"/><circle cx="327.9" cy="68.0" r="1.7" fill="#a5432a" stroke="none" opacity=".85"/><circle cx="382.4" cy="133.7" r="1.8" fill="#a5432a" stroke="none" opacity=".85"/><circle cx="145.3" cy="161.6" r="2.2" fill="#a5432a" stroke="none" opacity=".85"/><circle cx="114.2" cy="84.4" r="1.3" fill="#a5432a" stroke="none" opacity=".85"/><circle cx="131.6" cy="59.9" r="2.3" fill="#a5432a" stroke="none" opacity=".85"/><circle cx="384.7" cy="153.0" r="2.0" fill="#a5432a" stroke="none" opacity=".85"/><circle cx="316.9" cy="160.8" r="1.3" fill="#a5432a" stroke="none" opacity=".85"/><circle cx="335.6" cy="76.0" r="2.5" fill="#a5432a" stroke="none" opacity=".85"/><circle cx="281.4" cy="155.0" r="2.0" fill="#a5432a" stroke="none" opacity=".85"/><circle cx="255.1" cy="50.1" r="2.4" fill="#a5432a" stroke="none" opacity=".85"/><circle cx="153.0" cy="168.9" r="1.7" fill="#a5432a" stroke="none" opacity=".85"/><circle cx="410.4" cy="141.1" r="1.8" fill="#a5432a" stroke="none" opacity=".85"/><circle cx="310.5" cy="40.0" r="1.3" fill="#a5432a" stroke="none" opacity=".85"/><circle cx="326.8" cy="157.0" r="1.3" fill="#a5432a" stroke="none" opacity=".85"/><circle cx="361.4" cy="144.0" r="1.5" fill="#a5432a" stroke="none" opacity=".85"/><circle cx="63.6" cy="67.0" r="1.3" fill="#a5432a" stroke="none" opacity=".85"/><circle cx="258.2" cy="179.3" r="1.9" fill="#a5432a" stroke="none" opacity=".85"/>
<circle cx="419.1" cy="116.5" r="1.5" fill="#b47a22" stroke="none" opacity=".85"/><circle cx="394.4" cy="98.6" r="2.6" fill="#b47a22" stroke="none" opacity=".85"/><circle cx="355.7" cy="85.9" r="2.2" fill="#b47a22" stroke="none" opacity=".85"/><circle cx="366.6" cy="96.3" r="1.9" fill="#b47a22" stroke="none" opacity=".85"/><circle cx="370.8" cy="117.1" r="2.1" fill="#b47a22" stroke="none" opacity=".85"/><circle cx="48.9" cy="109.1" r="2.6" fill="#b47a22" stroke="none" opacity=".85"/><circle cx="344.9" cy="82.1" r="1.9" fill="#b47a22" stroke="none" opacity=".85"/><circle cx="387.5" cy="109.2" r="1.4" fill="#b47a22" stroke="none" opacity=".85"/><circle cx="104.3" cy="89.8" r="2.0" fill="#b47a22" stroke="none" opacity=".85"/><circle cx="100.8" cy="104.1" r="1.6" fill="#b47a22" stroke="none" opacity=".85"/><circle cx="83.1" cy="127.0" r="2.1" fill="#b47a22" stroke="none" opacity=".85"/><circle cx="49.6" cy="105.4" r="2.5" fill="#b47a22" stroke="none" opacity=".85"/><circle cx="406.2" cy="89.0" r="2.4" fill="#b47a22" stroke="none" opacity=".85"/><circle cx="418.3" cy="97.1" r="2.2" fill="#b47a22" stroke="none" opacity=".85"/><circle cx="50.6" cy="133.3" r="2.3" fill="#b47a22" stroke="none" opacity=".85"/><circle cx="415.4" cy="129.6" r="1.7" fill="#b47a22" stroke="none" opacity=".85"/>
</svg>