<svg xmlns="http://www.w3.org/2000/svg" viewBox="0 0 320 260" width="320" height="260" fill="none" stroke="#27221b" stroke-width="1.6" stroke-linejoin="round" stroke-linecap="round">
<ellipse cx="284" cy="44" rx="11" ry="9" transform="rotate(-18 284 44)" fill="#f4eddc" stroke-width="1.4"/>
<ellipse cx="268" cy="62" rx="24" ry="20" transform="rotate(-18 268 62)" fill="#f4eddc" stroke-width="1.4"/>
<ellipse cx="236" cy="96" rx="44" ry="36" transform="rotate(-18 236 96)" fill="#f4eddc" stroke-width="1.7"/>
<ellipse cx="180" cy="150" rx="74" ry="62" transform="rotate(-18 180 150)" fill="#f4eddc" stroke-width="1.7"/>
<path d="M290,38 L300,26" stroke-width="1.6"/>
<path d="M123.7,190.3 Q143.1,175.4 154.5,160.6" stroke-width=".9" opacity=".4" transform="rotate(-18 180 150)"/>
<path d="M114.9,179.4 Q137.3,168.1 151.8,156.8" stroke-width=".9" opacity=".4" transform="rotate(-18 180 150)"/>
<path d="M108.9,167.3 Q133.6,160.0 150.3,152.6" stroke-width=".9" opacity=".4" transform="rotate(-18 180 150)"/>
<path d="M106.2,154.4 Q132.1,151.4 150.1,148.4" stroke-width=".9" opacity=".4" transform="rotate(-18 180 150)"/>
<path d="M106.7,141.3 Q133.0,142.8 151.3,144.3" stroke-width=".9" opacity=".4" transform="rotate(-18 180 150)"/>
<path d="M110.6,128.5 Q136.1,134.4 153.7,140.4" stroke-width=".9" opacity=".4" transform="rotate(-18 180 150)"/>
<path d="M117.5,116.8 Q141.4,126.8 157.4,136.9" stroke-width=".9" opacity=".4" transform="rotate(-18 180 150)"/>
<path d="M124,190 C110,206 116,222 138,224 C150,224 156,214 156,206" fill="#f4eddc" stroke-width="1.6"/>
<path d="M62,224 C90,204 126,206 160,214 C200,222 236,226 262,220 C268,236 236,246 190,246 C140,248 96,244 62,224 Z" fill="#f4eddc"/>
<path d="M62,224 C48,212 40,200 46,192 C54,186 66,198 76,210" fill="#f4eddc"/>
<path d="M84,214 C76,200 78,188 88,186 C96,186 98,200 96,212" fill="#f4eddc"/>
<circle cx="82" cy="216" r="2.2" fill="#27221b" stroke="none"/>
</svg>