<svg xmlns="http://www.w3.org/2000/svg" viewBox="0 0 360 300" width="360" height="300" fill="none" stroke="#27221b" stroke-width="1.6" stroke-linejoin="round" stroke-linecap="round">
<path d="M212,92 C230,52 292,44 312,70 C322,84 306,98 292,98 L214,100 Z" fill="#f4eddc"/>
<path d="M212,208 C230,248 292,256 312,230 C322,216 306,202 292,202 L214,200 Z" fill="#f4eddc"/>
<path d="M150,150 C150,100 190,72 240,72 C300,72 348,108 348,150 C348,192 300,228 240,228 C190,228 150,200 150,150 Z" fill="#f4eddc"/>
<path d="M96,150 C96,122 118,108 150,110 L160,150 L150,190 C118,192 96,178 96,150 Z" fill="#f4eddc"/>
<circle cx="118" cy="124" r="15" fill="#f4eddc"/><circle cx="118" cy="124" r="8" fill="#27221b" stroke="none"/><circle cx="121" cy="121" r="2.6" fill="#f4eddc" stroke="none"/>
<circle cx="118" cy="176" r="15" fill="#f4eddc"/><circle cx="118" cy="176" r="8" fill="#27221b" stroke="none"/><circle cx="121" cy="173" r="2.6" fill="#f4eddc" stroke="none"/>
<path d="M103.1,130.9 L101.8,130.1 L100.4,129.4 L99.1,128.7 L97.8,128.0 L96.5,127.3 L95.2,126.6 L93.9,126.0 L92.6,125.3 L91.3,124.6 L90.1,123.9 L88.8,123.3 L87.5,122.6 L86.3,122.0 L85.0,121.3 L83.7,120.7 L82.5,120.0 L81.3,119.4 L80.0,118.8 L78.8,118.1 L77.6,117.5 L76.3,116.9 L75.1,116.3 L73.9,115.7 L72.7,115.1 L71.5,114.5 L70.3,113.9 L69.1,113.3 L67.9,112.7 L66.7,112.2 L65.6,111.6 L64.4,111.0 L63.2,110.5 L62.1,109.9 L60.9,109.4 L59.8,108.9 L58.6,108.3 L57.5,107.8 L56.3,107.3 L55.2,106.8 L54.1,106.3 L53.0,105.7 L51.9,105.3 L50.7,104.8 L49.6,104.3 L48.5,103.8 L47.5,103.3 L46.4,102.9 L45.3,102.4 L44.2,101.9 L43.1,101.5 L42.1,101.1 L41.0,100.6 L39.9,100.2 L38.9,99.8 L37.8,99.4 L36.8,98.9 L35.8,98.5 L34.7,98.1 L33.7,97.8 L32.7,97.4 L31.7,97.0 L30.7,96.6 L29.7,96.3 L28.7,95.9 L27.7,95.6 L26.7,95.2 L25.7,94.9 L24.7,94.5 L23.7,94.2 L23.0,94.0 L22.2,93.6 L21.5,93.0 L20.9,92.4 L20.4,91.7 L20.0,90.9 L19.7,90.1 L19.6,89.3 L19.7,88.5 L19.8,87.7 L20.1,87.0 L20.4,86.3 L20.9,85.8 L21.5,85.3 L22.1,84.9 L22.7,84.6 L23.4,84.4 L24.0,84.3 L24.7,84.4 L25.3,84.5 L25.9,84.7 L26.4,85.1 L26.9,85.4 L27.2,85.9 L27.5,86.4 L27.7,86.9 L27.8,87.4 L27.9,87.9 L27.8,88.4 L27.7,88.8 L27.5,89.2 L27.3,89.6 L27.0,89.9 L26.6,90.1 L26.3,90.3 L26.0,90.4 L25.6,90.5 L25.3,90.5 L25.0,90.4 L24.7,90.3 L24.5,90.2 L24.3,90.0 L24.1,89.8 L24.0,89.7 L23.9,89.4 L21.9,90.1 L22.0,90.5 L22.3,91.1 L22.7,91.6 L23.1,92.0 L23.7,92.3 L24.3,92.6 L25.0,92.8 L25.7,92.8 L26.4,92.8 L27.2,92.6 L27.9,92.2 L28.5,91.8 L29.1,91.2 L29.7,90.6 L30.1,89.8 L30.4,88.9 L30.5,88.0 L30.5,87.1 L30.4,86.1 L30.1,85.2 L29.6,84.3 L29.0,83.5 L28.2,82.8 L27.3,82.1 L26.3,81.7 L25.2,81.3 L24.1,81.2 L22.9,81.2 L21.7,81.4 L20.6,81.9 L19.5,82.5 L18.5,83.3 L17.6,84.2 L16.9,85.4 L16.3,86.6 L15.9,87.9 L15.8,89.3 L15.9,90.8 L16.2,92.2 L16.7,93.6 L17.5,94.9 L18.5,96.1 L19.7,97.1 L21.0,98.0 L22.2,98.5 L23.1,98.9 L24.0,99.2 L25.0,99.7 L25.9,100.1 L26.8,100.5 L27.8,100.9 L28.7,101.3 L29.7,101.8 L30.7,102.2 L31.6,102.7 L32.6,103.1 L33.6,103.6 L34.6,104.1 L35.5,104.5 L36.5,105.0 L37.5,105.5 L38.5,106.0 L39.5,106.5 L40.5,107.1 L41.6,107.6 L42.6,108.1 L43.6,108.7 L44.6,109.2 L45.7,109.8 L46.7,110.3 L47.7,110.9 L48.8,111.5 L49.8,112.0 L50.9,112.6 L52.0,113.2 L53.0,113.8 L54.1,114.4 L55.2,115.0 L56.2,115.6 L57.3,116.3 L58.4,116.9 L59.5,117.5 L60.6,118.2 L61.7,118.8 L62.8,119.5 L63.9,120.2 L65.0,120.8 L66.2,121.5 L67.3,122.2 L68.4,122.9 L69.5,123.6 L70.7,124.3 L71.8,125.0 L73.0,125.7 L74.1,126.4 L75.3,127.1 L76.4,127.9 L77.6,128.6 L78.8,129.3 L80.0,130.1 L81.1,130.8 L82.3,131.6 L83.5,132.4 L84.7,133.1 L85.9,133.9 L87.1,134.7 L88.3,135.5 L89.5,136.3 L90.8,137.1 L92.0,137.9 L93.2,138.7 L94.4,139.5 L95.7,140.3 L96.9,141.1 Z" fill="#f4eddc"/><circle cx="96.5" cy="130.2" r="1.5" fill="#27221b" stroke="none"/><circle cx="90.1" cy="126.7" r="1.4" fill="#27221b" stroke="none"/><circle cx="83.9" cy="123.2" r="1.3" fill="#27221b" stroke="none"/><circle cx="77.8" cy="120.0" r="1.2" fill="#27221b" stroke="none"/><circle cx="71.8" cy="116.8" r="1.2" fill="#27221b" stroke="none"/><circle cx="65.9" cy="113.8" r="1.1" fill="#27221b" stroke="none"/><circle cx="60.1" cy="110.9" r="1.0" fill="#27221b" stroke="none"/><circle cx="55.6" cy="108.7" r="1.0" fill="#27221b" stroke="none"/><circle cx="51.2" cy="106.6" r="0.9" fill="#27221b" stroke="none"/><circle cx="46.8" cy="104.6" r="0.8" fill="#27221b" stroke="none"/><circle cx="42.6" cy="102.7" r="0.8" fill="#27221b" stroke="none"/><circle cx="38.4" cy="100.9" r="0.8" fill="#27221b" stroke="none"/><circle cx="34.3" cy="99.2" r="0.7" fill="#27221b" stroke="none"/><circle cx="30.2" cy="97.7" r="0.7" fill="#27221b" stroke="none"/><circle cx="26.3" cy="96.2" r="0.7" fill="#27221b" stroke="none"/><circle cx="22.5" cy="94.9" r="0.7" fill="#27221b" stroke="none"/><circle cx="20.1" cy="93.0" r="0.7" fill="#27221b" stroke="none"/><circle cx="18.9" cy="90.3" r="0.7" fill="#27221b" stroke="none"/><circle cx="19.0" cy="87.5" r="0.7" fill="#27221b" stroke="none"/><circle cx="21.0" cy="84.6" r="0.7" fill="#27221b" stroke="none"/><circle cx="24.0" cy="83.6" r="0.7" fill="#27221b" stroke="none"/><circle cx="26.8" cy="84.5" r="0.7" fill="#27221b" stroke="none"/><circle cx="28.4" cy="87.3" r="0.7" fill="#27221b" stroke="none"/><circle cx="27.7" cy="90.0" r="0.7" fill="#27221b" stroke="none"/>
<path d="M99.2,140.1 L97.9,139.9 L96.6,139.7 L95.3,139.5 L94.0,139.3 L92.7,139.2 L91.4,139.0 L90.2,138.8 L88.9,138.6 L87.6,138.4 L86.3,138.2 L85.1,138.0 L83.8,137.8 L82.5,137.6 L81.3,137.4 L80.0,137.2 L78.8,137.0 L77.5,136.8 L76.3,136.6 L75.0,136.4 L73.8,136.3 L72.5,136.1 L71.3,135.9 L70.1,135.7 L68.8,135.5 L67.6,135.3 L66.4,135.1 L65.2,134.9 L63.9,134.7 L62.7,134.5 L61.5,134.4 L60.3,134.2 L59.1,134.0 L57.9,133.8 L56.7,133.6 L55.5,133.4 L54.3,133.3 L53.1,133.1 L52.0,132.9 L50.8,132.7 L49.6,132.5 L48.4,132.4 L47.3,132.2 L46.1,132.0 L44.9,131.8 L43.8,131.7 L42.6,131.5 L41.5,131.3 L40.4,131.2 L39.2,131.0 L38.1,130.8 L37.0,130.7 L35.8,130.5 L34.7,130.3 L33.6,130.2 L32.5,130.0 L31.4,129.9 L30.3,129.7 L29.2,129.6 L28.1,129.4 L27.0,129.3 L25.9,129.1 L24.8,129.0 L23.8,128.8 L22.7,128.7 L21.6,128.5 L20.6,128.4 L19.5,128.2 L18.4,128.1 L17.4,128.0 L16.1,127.8 L14.5,127.9 L13.0,128.2 L11.6,128.8 L10.3,129.6 L9.1,130.5 L8.2,131.6 L7.4,132.8 L6.9,134.1 L6.6,135.4 L6.5,136.8 L6.6,138.1 L6.9,139.3 L7.4,140.4 L8.0,141.5 L8.8,142.4 L9.7,143.1 L10.7,143.7 L11.7,144.1 L12.8,144.3 L13.8,144.4 L14.9,144.2 L15.8,144.0 L16.7,143.5 L17.5,143.0 L18.2,142.4 L18.7,141.6 L19.1,140.9 L19.4,140.0 L19.5,139.2 L19.5,138.4 L19.4,137.6 L19.1,136.9 L18.8,136.3 L18.3,135.7 L17.8,135.3 L17.2,134.9 L16.6,134.7 L16.0,134.5 L15.4,134.5 L14.9,134.6 L15.2,136.8 L15.5,136.7 L15.7,136.7 L15.9,136.8 L16.2,136.9 L16.4,137.1 L16.6,137.3 L16.8,137.6 L17.0,137.9 L17.1,138.2 L17.1,138.6 L17.1,139.0 L17.0,139.4 L16.8,139.8 L16.6,140.2 L16.3,140.6 L15.9,140.9 L15.4,141.2 L14.9,141.4 L14.4,141.5 L13.8,141.5 L13.2,141.4 L12.6,141.3 L12.1,141.0 L11.5,140.6 L11.0,140.2 L10.6,139.6 L10.3,139.0 L10.1,138.3 L10.0,137.6 L10.0,136.9 L10.1,136.1 L10.3,135.3 L10.7,134.6 L11.2,134.0 L11.8,133.4 L12.5,132.9 L13.2,132.5 L14.1,132.3 L15.0,132.2 L15.9,132.2 L16.7,132.4 L17.7,132.6 L18.7,132.8 L19.8,133.0 L20.8,133.2 L21.8,133.5 L22.9,133.7 L23.9,133.9 L25.0,134.2 L26.1,134.4 L27.1,134.7 L28.2,134.9 L29.3,135.1 L30.4,135.4 L31.4,135.6 L32.5,135.9 L33.6,136.1 L34.7,136.4 L35.8,136.7 L36.9,136.9 L38.0,137.2 L39.1,137.4 L40.3,137.7 L41.4,138.0 L42.5,138.2 L43.6,138.5 L44.8,138.8 L45.9,139.1 L47.1,139.4 L48.2,139.6 L49.4,139.9 L50.5,140.2 L51.7,140.5 L52.8,140.8 L54.0,141.1 L55.2,141.3 L56.3,141.6 L57.5,141.9 L58.7,142.2 L59.9,142.5 L61.1,142.8 L62.2,143.1 L63.4,143.4 L64.6,143.7 L65.8,144.0 L67.0,144.3 L68.2,144.6 L69.4,144.9 L70.7,145.2 L71.9,145.6 L73.1,145.9 L74.3,146.2 L75.5,146.5 L76.8,146.8 L78.0,147.1 L79.2,147.4 L80.5,147.7 L81.7,148.1 L83.0,148.4 L84.2,148.7 L85.5,149.0 L86.7,149.3 L88.0,149.6 L89.2,150.0 L90.5,150.3 L91.7,150.6 L93.0,150.9 L94.3,151.2 L95.5,151.6 L96.8,151.9 Z" fill="#f4eddc"/><circle cx="92.2" cy="148.1" r="1.5" fill="#27221b" stroke="none"/><circle cx="84.7" cy="146.4" r="1.4" fill="#27221b" stroke="none"/><circle cx="77.2" cy="144.6" r="1.3" fill="#27221b" stroke="none"/><circle cx="71.1" cy="143.2" r="1.2" fill="#27221b" stroke="none"/><circle cx="65.0" cy="141.8" r="1.1" fill="#27221b" stroke="none"/><circle cx="59.0" cy="140.5" r="1.1" fill="#27221b" stroke="none"/><circle cx="53.2" cy="139.1" r="1.0" fill="#27221b" stroke="none"/><circle cx="48.5" cy="138.1" r="0.9" fill="#27221b" stroke="none"/><circle cx="43.9" cy="137.1" r="0.9" fill="#27221b" stroke="none"/><circle cx="39.4" cy="136.1" r="0.8" fill="#27221b" stroke="none"/><circle cx="35.0" cy="135.1" r="0.8" fill="#27221b" stroke="none"/><circle cx="30.6" cy="134.2" r="0.7" fill="#27221b" stroke="none"/><circle cx="26.3" cy="133.3" r="0.7" fill="#27221b" stroke="none"/><circle cx="23.1" cy="132.6" r="0.7" fill="#27221b" stroke="none"/><circle cx="19.9" cy="132.0" r="0.7" fill="#27221b" stroke="none"/><circle cx="15.9" cy="131.2" r="0.7" fill="#27221b" stroke="none"/><circle cx="12.9" cy="131.7" r="0.7" fill="#27221b" stroke="none"/><circle cx="10.5" cy="133.5" r="0.7" fill="#27221b" stroke="none"/><circle cx="9.3" cy="135.9" r="0.7" fill="#27221b" stroke="none"/><circle cx="9.7" cy="139.3" r="0.7" fill="#27221b" stroke="none"/><circle cx="11.8" cy="141.6" r="0.7" fill="#27221b" stroke="none"/><circle cx="14.5" cy="142.1" r="0.7" fill="#27221b" stroke="none"/><circle cx="17.1" cy="140.5" r="0.7" fill="#27221b" stroke="none"/><circle cx="17.4" cy="137.7" r="0.7" fill="#27221b" stroke="none"/>
<path d="M96.8,150.1 L95.5,150.4 L94.3,150.8 L93.0,151.1 L91.7,151.4 L90.5,151.7 L89.2,152.0 L88.0,152.4 L86.7,152.7 L85.5,153.0 L84.2,153.3 L83.0,153.6 L81.7,153.9 L80.5,154.3 L79.2,154.6 L78.0,154.9 L76.8,155.2 L75.5,155.5 L74.3,155.8 L73.1,156.1 L71.9,156.4 L70.7,156.8 L69.4,157.1 L68.2,157.4 L67.0,157.7 L65.8,158.0 L64.6,158.3 L63.4,158.6 L62.2,158.9 L61.1,159.2 L59.9,159.5 L58.7,159.8 L57.5,160.1 L56.3,160.4 L55.2,160.7 L54.0,160.9 L52.8,161.2 L51.7,161.5 L50.5,161.8 L49.4,162.1 L48.2,162.4 L47.1,162.6 L45.9,162.9 L44.8,163.2 L43.6,163.5 L42.5,163.8 L41.4,164.0 L40.3,164.3 L39.1,164.6 L38.0,164.8 L36.9,165.1 L35.8,165.3 L34.7,165.6 L33.6,165.9 L32.5,166.1 L31.4,166.4 L30.4,166.6 L29.3,166.9 L28.2,167.1 L27.1,167.3 L26.1,167.6 L25.0,167.8 L23.9,168.1 L22.9,168.3 L21.8,168.5 L20.8,168.8 L19.8,169.0 L18.7,169.2 L17.7,169.4 L16.7,169.6 L15.9,169.8 L15.0,169.8 L14.1,169.7 L13.2,169.5 L12.5,169.1 L11.8,168.6 L11.2,168.0 L10.7,167.4 L10.3,166.7 L10.1,165.9 L10.0,165.1 L10.0,164.4 L10.1,163.7 L10.3,163.0 L10.6,162.4 L11.0,161.8 L11.5,161.4 L12.1,161.0 L12.6,160.7 L13.2,160.6 L13.8,160.5 L14.4,160.5 L14.9,160.6 L15.4,160.8 L15.9,161.1 L16.3,161.4 L16.6,161.8 L16.8,162.2 L17.0,162.6 L17.1,163.0 L17.1,163.4 L17.1,163.8 L17.0,164.1 L16.8,164.4 L16.6,164.7 L16.4,164.9 L16.2,165.1 L15.9,165.2 L15.7,165.3 L15.5,165.3 L15.2,165.2 L14.9,167.4 L15.4,167.5 L16.0,167.5 L16.6,167.3 L17.2,167.1 L17.8,166.7 L18.3,166.3 L18.8,165.7 L19.1,165.1 L19.4,164.4 L19.5,163.6 L19.5,162.8 L19.4,162.0 L19.1,161.1 L18.7,160.4 L18.2,159.6 L17.5,159.0 L16.7,158.5 L15.8,158.0 L14.9,157.8 L13.8,157.6 L12.8,157.7 L11.7,157.9 L10.7,158.3 L9.7,158.9 L8.8,159.6 L8.0,160.5 L7.4,161.6 L6.9,162.7 L6.6,163.9 L6.5,165.2 L6.6,166.6 L6.9,167.9 L7.4,169.2 L8.2,170.4 L9.1,171.5 L10.3,172.4 L11.6,173.2 L13.0,173.8 L14.5,174.1 L16.1,174.2 L17.4,174.0 L18.4,173.9 L19.5,173.8 L20.6,173.6 L21.6,173.5 L22.7,173.3 L23.8,173.2 L24.8,173.0 L25.9,172.9 L27.0,172.7 L28.1,172.6 L29.2,172.4 L30.3,172.3 L31.4,172.1 L32.5,172.0 L33.6,171.8 L34.7,171.7 L35.8,171.5 L37.0,171.3 L38.1,171.2 L39.2,171.0 L40.4,170.8 L41.5,170.7 L42.6,170.5 L43.8,170.3 L44.9,170.2 L46.1,170.0 L47.3,169.8 L48.4,169.6 L49.6,169.5 L50.8,169.3 L52.0,169.1 L53.1,168.9 L54.3,168.7 L55.5,168.6 L56.7,168.4 L57.9,168.2 L59.1,168.0 L60.3,167.8 L61.5,167.6 L62.7,167.5 L63.9,167.3 L65.2,167.1 L66.4,166.9 L67.6,166.7 L68.8,166.5 L70.1,166.3 L71.3,166.1 L72.5,165.9 L73.8,165.7 L75.0,165.6 L76.3,165.4 L77.5,165.2 L78.8,165.0 L80.0,164.8 L81.3,164.6 L82.5,164.4 L83.8,164.2 L85.1,164.0 L86.3,163.8 L87.6,163.6 L88.9,163.4 L90.2,163.2 L91.4,163.0 L92.7,162.8 L94.0,162.7 L95.3,162.5 L96.6,162.3 L97.9,162.1 L99.2,161.9 Z" fill="#f4eddc"/><circle cx="92.2" cy="153.9" r="1.5" fill="#27221b" stroke="none"/><circle cx="84.7" cy="155.6" r="1.4" fill="#27221b" stroke="none"/><circle cx="77.2" cy="157.4" r="1.3" fill="#27221b" stroke="none"/><circle cx="71.1" cy="158.8" r="1.2" fill="#27221b" stroke="none"/><circle cx="65.0" cy="160.2" r="1.1" fill="#27221b" stroke="none"/><circle cx="59.0" cy="161.5" r="1.1" fill="#27221b" stroke="none"/><circle cx="53.2" cy="162.9" r="1.0" fill="#27221b" stroke="none"/><circle cx="48.5" cy="163.9" r="0.9" fill="#27221b" stroke="none"/><circle cx="43.9" cy="164.9" r="0.9" fill="#27221b" stroke="none"/><circle cx="39.4" cy="165.9" r="0.8" fill="#27221b" stroke="none"/><circle cx="35.0" cy="166.9" r="0.8" fill="#27221b" stroke="none"/><circle cx="30.6" cy="167.8" r="0.7" fill="#27221b" stroke="none"/><circle cx="26.3" cy="168.7" r="0.7" fill="#27221b" stroke="none"/><circle cx="23.1" cy="169.4" r="0.7" fill="#27221b" stroke="none"/><circle cx="19.9" cy="170.0" r="0.7" fill="#27221b" stroke="none"/><circle cx="15.9" cy="170.8" r="0.7" fill="#27221b" stroke="none"/><circle cx="12.9" cy="170.3" r="0.7" fill="#27221b" stroke="none"/><circle cx="10.5" cy="168.5" r="0.7" fill="#27221b" stroke="none"/><circle cx="9.3" cy="166.1" r="0.7" fill="#27221b" stroke="none"/><circle cx="9.7" cy="162.7" r="0.7" fill="#27221b" stroke="none"/><circle cx="11.8" cy="160.4" r="0.7" fill="#27221b" stroke="none"/><circle cx="14.5" cy="159.9" r="0.7" fill="#27221b" stroke="none"/><circle cx="17.1" cy="161.5" r="0.7" fill="#27221b" stroke="none"/><circle cx="17.4" cy="164.3" r="0.7" fill="#27221b" stroke="none"/>
<path d="M96.9,160.9 L95.7,161.7 L94.4,162.5 L93.2,163.3 L92.0,164.1 L90.8,164.9 L89.5,165.7 L88.3,166.5 L87.1,167.3 L85.9,168.1 L84.7,168.9 L83.5,169.6 L82.3,170.4 L81.1,171.2 L80.0,171.9 L78.8,172.7 L77.6,173.4 L76.4,174.1 L75.3,174.9 L74.1,175.6 L73.0,176.3 L71.8,177.0 L70.7,177.7 L69.5,178.4 L68.4,179.1 L67.3,179.8 L66.2,180.5 L65.0,181.2 L63.9,181.8 L62.8,182.5 L61.7,183.2 L60.6,183.8 L59.5,184.5 L58.4,185.1 L57.3,185.7 L56.2,186.4 L55.2,187.0 L54.1,187.6 L53.0,188.2 L52.0,188.8 L50.9,189.4 L49.8,190.0 L48.8,190.5 L47.7,191.1 L46.7,191.7 L45.7,192.2 L44.6,192.8 L43.6,193.3 L42.6,193.9 L41.6,194.4 L40.5,194.9 L39.5,195.5 L38.5,196.0 L37.5,196.5 L36.5,197.0 L35.5,197.5 L34.6,197.9 L33.6,198.4 L32.6,198.9 L31.6,199.3 L30.7,199.8 L29.7,200.2 L28.7,200.7 L27.8,201.1 L26.8,201.5 L25.9,201.9 L25.0,202.3 L24.0,202.8 L23.1,203.1 L22.2,203.5 L21.0,204.0 L19.7,204.9 L18.5,205.9 L17.5,207.1 L16.7,208.4 L16.2,209.8 L15.9,211.2 L15.8,212.7 L15.9,214.1 L16.3,215.4 L16.9,216.6 L17.6,217.8 L18.5,218.7 L19.5,219.5 L20.6,220.1 L21.7,220.6 L22.9,220.8 L24.1,220.8 L25.2,220.7 L26.3,220.3 L27.3,219.9 L28.2,219.2 L29.0,218.5 L29.6,217.7 L30.1,216.8 L30.4,215.9 L30.5,214.9 L30.5,214.0 L30.4,213.1 L30.1,212.2 L29.7,211.4 L29.1,210.8 L28.5,210.2 L27.9,209.8 L27.2,209.4 L26.4,209.2 L25.7,209.2 L25.0,209.2 L24.3,209.4 L23.7,209.7 L23.1,210.0 L22.7,210.4 L22.3,210.9 L22.0,211.5 L21.9,211.9 L23.9,212.6 L24.0,212.3 L24.1,212.2 L24.3,212.0 L24.5,211.8 L24.7,211.7 L25.0,211.6 L25.3,211.5 L25.6,211.5 L26.0,211.6 L26.3,211.7 L26.6,211.9 L27.0,212.1 L27.3,212.4 L27.5,212.8 L27.7,213.2 L27.8,213.6 L27.9,214.1 L27.8,214.6 L27.7,215.1 L27.5,215.6 L27.2,216.1 L26.9,216.6 L26.4,216.9 L25.9,217.3 L25.3,217.5 L24.7,217.6 L24.0,217.7 L23.4,217.6 L22.7,217.4 L22.1,217.1 L21.5,216.7 L20.9,216.2 L20.4,215.7 L20.1,215.0 L19.8,214.3 L19.7,213.5 L19.6,212.7 L19.7,211.9 L20.0,211.1 L20.4,210.3 L20.9,209.6 L21.5,209.0 L22.2,208.4 L23.0,208.0 L23.7,207.8 L24.7,207.5 L25.7,207.1 L26.7,206.8 L27.7,206.4 L28.7,206.1 L29.7,205.7 L30.7,205.4 L31.7,205.0 L32.7,204.6 L33.7,204.2 L34.7,203.9 L35.8,203.5 L36.8,203.1 L37.8,202.6 L38.9,202.2 L39.9,201.8 L41.0,201.4 L42.1,200.9 L43.1,200.5 L44.2,200.1 L45.3,199.6 L46.4,199.1 L47.5,198.7 L48.5,198.2 L49.6,197.7 L50.7,197.2 L51.9,196.7 L53.0,196.3 L54.1,195.7 L55.2,195.2 L56.3,194.7 L57.5,194.2 L58.6,193.7 L59.8,193.1 L60.9,192.6 L62.1,192.1 L63.2,191.5 L64.4,191.0 L65.6,190.4 L66.7,189.8 L67.9,189.3 L69.1,188.7 L70.3,188.1 L71.5,187.5 L72.7,186.9 L73.9,186.3 L75.1,185.7 L76.3,185.1 L77.6,184.5 L78.8,183.9 L80.0,183.2 L81.3,182.6 L82.5,182.0 L83.7,181.3 L85.0,180.7 L86.3,180.0 L87.5,179.4 L88.8,178.7 L90.1,178.1 L91.3,177.4 L92.6,176.7 L93.9,176.0 L95.2,175.4 L96.5,174.7 L97.8,174.0 L99.1,173.3 L100.4,172.6 L101.8,171.9 L103.1,171.1 Z" fill="#f4eddc"/><circle cx="96.5" cy="171.8" r="1.5" fill="#27221b" stroke="none"/><circle cx="90.1" cy="175.3" r="1.4" fill="#27221b" stroke="none"/><circle cx="83.9" cy="178.8" r="1.3" fill="#27221b" stroke="none"/><circle cx="77.8" cy="182.0" r="1.2" fill="#27221b" stroke="none"/><circle cx="71.8" cy="185.2" r="1.2" fill="#27221b" stroke="none"/><circle cx="65.9" cy="188.2" r="1.1" fill="#27221b" stroke="none"/><circle cx="60.1" cy="191.1" r="1.0" fill="#27221b" stroke="none"/><circle cx="55.6" cy="193.3" r="1.0" fill="#27221b" stroke="none"/><circle cx="51.2" cy="195.4" r="0.9" fill="#27221b" stroke="none"/><circle cx="46.8" cy="197.4" r="0.8" fill="#27221b" stroke="none"/><circle cx="42.6" cy="199.3" r="0.8" fill="#27221b" stroke="none"/><circle cx="38.4" cy="201.1" r="0.8" fill="#27221b" stroke="none"/><circle cx="34.3" cy="202.8" r="0.7" fill="#27221b" stroke="none"/><circle cx="30.2" cy="204.3" r="0.7" fill="#27221b" stroke="none"/><circle cx="26.3" cy="205.8" r="0.7" fill="#27221b" stroke="none"/><circle cx="22.5" cy="207.1" r="0.7" fill="#27221b" stroke="none"/><circle cx="20.1" cy="209.0" r="0.7" fill="#27221b" stroke="none"/><circle cx="18.9" cy="211.7" r="0.7" fill="#27221b" stroke="none"/><circle cx="19.0" cy="214.5" r="0.7" fill="#27221b" stroke="none"/><circle cx="21.0" cy="217.4" r="0.7" fill="#27221b" stroke="none"/><circle cx="24.0" cy="218.4" r="0.7" fill="#27221b" stroke="none"/><circle cx="26.8" cy="217.5" r="0.7" fill="#27221b" stroke="none"/><circle cx="28.4" cy="214.7" r="0.7" fill="#27221b" stroke="none"/><circle cx="27.7" cy="212.0" r="0.7" fill="#27221b" stroke="none"/>
<path d="M105.1,139.2 L103.7,138.7 L102.2,138.1 L100.7,137.5 L99.2,137.0 L97.7,136.4 L96.2,135.9 L94.8,135.3 L93.3,134.8 L91.8,134.2 L90.3,133.7 L88.8,133.2 L87.3,132.6 L85.8,132.1 L84.3,131.6 L82.8,131.1 L81.3,130.6 L79.9,130.1 L78.4,129.6 L76.9,129.1 L75.4,128.6 L73.9,128.1 L72.4,127.7 L71.0,127.2 L69.5,126.8 L68.0,126.3 L66.5,125.9 L65.1,125.5 L63.6,125.1 L62.1,124.7 L60.7,124.3 L59.2,123.9 L57.8,123.5 L56.3,123.1 L54.9,122.8 L53.5,122.4 L52.0,122.1 L50.6,121.8 L49.2,121.5 L47.8,121.2 L46.4,120.9 L45.0,120.6 L43.6,120.3 L42.2,120.1 L40.8,119.9 L39.4,119.6 L38.0,119.4 L36.7,119.2 L35.3,119.0 L34.0,118.9 L32.6,118.7 L31.3,118.6 L30.0,118.4 L28.7,118.3 L27.4,118.2 L26.1,118.1 L24.8,118.1 L23.5,118.0 L22.2,118.0 L21.0,118.0 L19.7,118.0 L18.5,118.0 L17.3,118.0 L16.0,118.1 L14.8,118.2 L13.6,118.2 L12.5,118.3 L11.3,118.5 L10.1,118.6 L9.0,118.8 L7.8,119.0 L6.8,119.3 L6.0,119.8 L5.3,120.3 L4.7,121.0 L4.2,121.7 L3.8,122.5 L3.6,123.3 L3.5,124.2 L3.6,125.0 L3.7,125.8 L4.0,126.5 L4.4,127.2 L4.9,127.8 L5.5,128.3 L6.1,128.7 L6.8,129.0 L7.4,129.1 L8.1,129.2 L8.8,129.1 L9.4,128.9 L10.0,128.7 L10.6,128.3 L11.0,127.9 L11.4,127.5 L11.7,127.0 L11.9,126.4 L12.0,125.9 L12.0,125.3 L11.9,124.8 L11.8,124.3 L11.5,123.9 L11.2,123.5 L10.9,123.1 L10.5,122.9 L10.1,122.7 L9.7,122.6 L9.3,122.6 L8.8,122.6 L8.5,122.7 L8.2,122.8 L8.9,124.3 L9.0,124.2 L9.1,124.2 L9.3,124.2 L9.4,124.2 L9.5,124.2 L9.7,124.3 L9.9,124.4 L10.0,124.6 L10.1,124.7 L10.2,124.9 L10.3,125.2 L10.3,125.4 L10.3,125.7 L10.3,126.0 L10.2,126.2 L10.0,126.5 L9.8,126.8 L9.5,127.0 L9.2,127.2 L8.9,127.3 L8.5,127.4 L8.1,127.4 L7.7,127.4 L7.3,127.2 L7.0,127.1 L6.6,126.8 L6.3,126.5 L6.0,126.2 L5.7,125.7 L5.6,125.3 L5.5,124.8 L5.5,124.3 L5.5,123.7 L5.7,123.2 L5.9,122.7 L6.3,122.3 L6.7,121.8 L7.1,121.5 L7.7,121.2 L8.2,121.0 L9.3,120.9 L10.4,120.8 L11.5,120.7 L12.6,120.6 L13.8,120.5 L15.0,120.5 L16.1,120.5 L17.3,120.4 L18.5,120.4 L19.7,120.5 L20.9,120.5 L22.1,120.6 L23.4,120.6 L24.6,120.7 L25.9,120.8 L27.1,121.0 L28.4,121.1 L29.7,121.3 L31.0,121.4 L32.3,121.6 L33.6,121.8 L34.9,122.0 L36.2,122.3 L37.5,122.5 L38.9,122.8 L40.2,123.0 L41.5,123.3 L42.9,123.6 L44.3,123.9 L45.6,124.3 L47.0,124.6 L48.4,124.9 L49.8,125.3 L51.1,125.7 L52.5,126.1 L53.9,126.5 L55.3,126.9 L56.7,127.3 L58.2,127.7 L59.6,128.1 L61.0,128.6 L62.4,129.0 L63.8,129.5 L65.3,130.0 L66.7,130.5 L68.1,131.0 L69.6,131.5 L71.0,132.0 L72.4,132.5 L73.9,133.0 L75.3,133.5 L76.8,134.1 L78.2,134.6 L79.7,135.2 L81.1,135.8 L82.6,136.3 L84.0,136.9 L85.5,137.5 L86.9,138.1 L88.4,138.6 L89.8,139.2 L91.3,139.8 L92.7,140.4 L94.2,141.0 L95.6,141.7 L97.1,142.3 L98.5,142.9 L100.0,143.5 L101.4,144.1 L102.9,144.8 Z" fill="#f4eddc"/><circle cx="97.6" cy="141.1" r="0.7" fill="#27221b" stroke="none"/><circle cx="93.2" cy="139.3" r="0.7" fill="#27221b" stroke="none"/><circle cx="88.8" cy="137.6" r="0.7" fill="#27221b" stroke="none"/><circle cx="84.4" cy="135.8" r="0.7" fill="#27221b" stroke="none"/><circle cx="80.0" cy="134.2" r="0.7" fill="#27221b" stroke="none"/><circle cx="75.7" cy="132.6" r="0.7" fill="#27221b" stroke="none"/><circle cx="71.3" cy="131.0" r="0.7" fill="#27221b" stroke="none"/><circle cx="67.0" cy="129.6" r="0.7" fill="#27221b" stroke="none"/><circle cx="62.7" cy="128.2" r="0.7" fill="#27221b" stroke="none"/><circle cx="58.4" cy="126.9" r="0.7" fill="#27221b" stroke="none"/><circle cx="54.1" cy="125.6" r="0.7" fill="#27221b" stroke="none"/><circle cx="49.9" cy="124.5" r="0.7" fill="#27221b" stroke="none"/><circle cx="45.8" cy="123.5" r="0.7" fill="#27221b" stroke="none"/><circle cx="41.7" cy="122.6" r="0.7" fill="#27221b" stroke="none"/><circle cx="37.6" cy="121.8" r="0.7" fill="#27221b" stroke="none"/><circle cx="33.7" cy="121.2" r="0.7" fill="#27221b" stroke="none"/><circle cx="29.8" cy="120.6" r="0.7" fill="#27221b" stroke="none"/><circle cx="25.9" cy="120.3" r="0.7" fill="#27221b" stroke="none"/><circle cx="22.2" cy="120.0" r="0.7" fill="#27221b" stroke="none"/><circle cx="18.5" cy="119.9" r="0.7" fill="#27221b" stroke="none"/><circle cx="14.9" cy="120.0" r="0.7" fill="#27221b" stroke="none"/><circle cx="11.5" cy="120.2" r="0.7" fill="#27221b" stroke="none"/><circle cx="8.1" cy="120.6" r="0.7" fill="#27221b" stroke="none"/><circle cx="5.6" cy="122.5" r="0.7" fill="#27221b" stroke="none"/><circle cx="5.2" cy="125.4" r="0.7" fill="#27221b" stroke="none"/><circle cx="7.2" cy="127.6" r="0.7" fill="#27221b" stroke="none"/><circle cx="10.1" cy="127.0" r="0.7" fill="#27221b" stroke="none"/>
<path d="M102.9,157.2 L101.4,157.9 L100.0,158.5 L98.5,159.1 L97.1,159.7 L95.6,160.3 L94.2,161.0 L92.7,161.6 L91.3,162.2 L89.8,162.8 L88.4,163.4 L86.9,163.9 L85.5,164.5 L84.0,165.1 L82.6,165.7 L81.1,166.2 L79.7,166.8 L78.2,167.4 L76.8,167.9 L75.3,168.5 L73.9,169.0 L72.4,169.5 L71.0,170.0 L69.6,170.5 L68.1,171.0 L66.7,171.5 L65.3,172.0 L63.8,172.5 L62.4,173.0 L61.0,173.4 L59.6,173.9 L58.2,174.3 L56.7,174.7 L55.3,175.1 L53.9,175.5 L52.5,175.9 L51.1,176.3 L49.8,176.7 L48.4,177.1 L47.0,177.4 L45.6,177.7 L44.3,178.1 L42.9,178.4 L41.5,178.7 L40.2,179.0 L38.9,179.2 L37.5,179.5 L36.2,179.7 L34.9,180.0 L33.6,180.2 L32.3,180.4 L31.0,180.6 L29.7,180.7 L28.4,180.9 L27.1,181.0 L25.9,181.2 L24.6,181.3 L23.4,181.4 L22.1,181.4 L20.9,181.5 L19.7,181.5 L18.5,181.6 L17.3,181.6 L16.1,181.5 L15.0,181.5 L13.8,181.5 L12.6,181.4 L11.5,181.3 L10.4,181.2 L9.3,181.1 L8.2,181.0 L7.7,180.8 L7.1,180.5 L6.7,180.2 L6.3,179.7 L5.9,179.3 L5.7,178.8 L5.5,178.3 L5.5,177.7 L5.5,177.2 L5.6,176.7 L5.7,176.3 L6.0,175.8 L6.3,175.5 L6.6,175.2 L7.0,174.9 L7.3,174.8 L7.7,174.6 L8.1,174.6 L8.5,174.6 L8.9,174.7 L9.2,174.8 L9.5,175.0 L9.8,175.2 L10.0,175.5 L10.2,175.8 L10.3,176.0 L10.3,176.3 L10.3,176.6 L10.3,176.8 L10.2,177.1 L10.1,177.3 L10.0,177.4 L9.9,177.6 L9.7,177.7 L9.5,177.8 L9.4,177.8 L9.3,177.8 L9.1,177.8 L9.0,177.8 L8.9,177.7 L8.2,179.2 L8.5,179.3 L8.8,179.4 L9.3,179.4 L9.7,179.4 L10.1,179.3 L10.5,179.1 L10.9,178.9 L11.2,178.5 L11.5,178.1 L11.8,177.7 L11.9,177.2 L12.0,176.7 L12.0,176.1 L11.9,175.6 L11.7,175.0 L11.4,174.5 L11.0,174.1 L10.6,173.7 L10.0,173.3 L9.4,173.1 L8.8,172.9 L8.1,172.8 L7.4,172.9 L6.8,173.0 L6.1,173.3 L5.5,173.7 L4.9,174.2 L4.4,174.8 L4.0,175.5 L3.7,176.2 L3.6,177.0 L3.5,177.8 L3.6,178.7 L3.8,179.5 L4.2,180.3 L4.7,181.0 L5.3,181.7 L6.0,182.2 L6.8,182.7 L7.8,183.0 L9.0,183.2 L10.1,183.4 L11.3,183.5 L12.5,183.7 L13.6,183.8 L14.8,183.8 L16.0,183.9 L17.3,184.0 L18.5,184.0 L19.7,184.0 L21.0,184.0 L22.2,184.0 L23.5,184.0 L24.8,183.9 L26.1,183.9 L27.4,183.8 L28.7,183.7 L30.0,183.6 L31.3,183.4 L32.6,183.3 L34.0,183.1 L35.3,183.0 L36.7,182.8 L38.0,182.6 L39.4,182.4 L40.8,182.1 L42.2,181.9 L43.6,181.7 L45.0,181.4 L46.4,181.1 L47.8,180.8 L49.2,180.5 L50.6,180.2 L52.0,179.9 L53.5,179.6 L54.9,179.2 L56.3,178.9 L57.8,178.5 L59.2,178.1 L60.7,177.7 L62.1,177.3 L63.6,176.9 L65.1,176.5 L66.5,176.1 L68.0,175.7 L69.5,175.2 L71.0,174.8 L72.4,174.3 L73.9,173.9 L75.4,173.4 L76.9,172.9 L78.4,172.4 L79.9,171.9 L81.3,171.4 L82.8,170.9 L84.3,170.4 L85.8,169.9 L87.3,169.4 L88.8,168.8 L90.3,168.3 L91.8,167.8 L93.3,167.2 L94.8,166.7 L96.2,166.1 L97.7,165.6 L99.2,165.0 L100.7,164.5 L102.2,163.9 L103.7,163.3 L105.1,162.8 Z" fill="#f4eddc"/><circle cx="97.6" cy="160.9" r="0.7" fill="#27221b" stroke="none"/><circle cx="93.2" cy="162.7" r="0.7" fill="#27221b" stroke="none"/><circle cx="88.8" cy="164.4" r="0.7" fill="#27221b" stroke="none"/><circle cx="84.4" cy="166.2" r="0.7" fill="#27221b" stroke="none"/><circle cx="80.0" cy="167.8" r="0.7" fill="#27221b" stroke="none"/><circle cx="75.7" cy="169.4" r="0.7" fill="#27221b" stroke="none"/><circle cx="71.3" cy="171.0" r="0.7" fill="#27221b" stroke="none"/><circle cx="67.0" cy="172.4" r="0.7" fill="#27221b" stroke="none"/><circle cx="62.7" cy="173.8" r="0.7" fill="#27221b" stroke="none"/><circle cx="58.4" cy="175.1" r="0.7" fill="#27221b" stroke="none"/><circle cx="54.1" cy="176.4" r="0.7" fill="#27221b" stroke="none"/><circle cx="49.9" cy="177.5" r="0.7" fill="#27221b" stroke="none"/><circle cx="45.8" cy="178.5" r="0.7" fill="#27221b" stroke="none"/><circle cx="41.7" cy="179.4" r="0.7" fill="#27221b" stroke="none"/><circle cx="37.6" cy="180.2" r="0.7" fill="#27221b" stroke="none"/><circle cx="33.7" cy="180.8" r="0.7" fill="#27221b" stroke="none"/><circle cx="29.8" cy="181.4" r="0.7" fill="#27221b" stroke="none"/><circle cx="25.9" cy="181.7" r="0.7" fill="#27221b" stroke="none"/><circle cx="22.2" cy="182.0" r="0.7" fill="#27221b" stroke="none"/><circle cx="18.5" cy="182.1" r="0.7" fill="#27221b" stroke="none"/><circle cx="14.9" cy="182.0" r="0.7" fill="#27221b" stroke="none"/><circle cx="11.5" cy="181.8" r="0.7" fill="#27221b" stroke="none"/><circle cx="8.1" cy="181.4" r="0.7" fill="#27221b" stroke="none"/><circle cx="5.6" cy="179.5" r="0.7" fill="#27221b" stroke="none"/><circle cx="5.2" cy="176.6" r="0.7" fill="#27221b" stroke="none"/><circle cx="7.2" cy="174.4" r="0.7" fill="#27221b" stroke="none"/><circle cx="10.1" cy="175.0" r="0.7" fill="#27221b" stroke="none"/>
<circle cx="197.1" cy="156.9" r="2.0" stroke-width="1.1"/><circle cx="269.6" cy="169.6" r="1.3" stroke-width="1.1"/><circle cx="201.4" cy="108.6" r="3.4" stroke-width="1.1"/><circle cx="243.1" cy="202.5" r="2.2" stroke-width="1.1"/><circle cx="276.5" cy="95.5" r="2.6" stroke-width="1.1"/><circle cx="321.9" cy="153.6" r="2.8" stroke-width="1.1"/><circle cx="300.1" cy="164.2" r="1.9" stroke-width="1.1"/><circle cx="243.6" cy="184.1" r="3.1" stroke-width="1.1"/><circle cx="228.2" cy="196.9" r="2.2" stroke-width="1.1"/><circle cx="236.4" cy="169.8" r="1.9" stroke-width="1.1"/><circle cx="250.4" cy="132.2" r="2.0" stroke-width="1.1"/><circle cx="265.8" cy="163.1" r="3.2" stroke-width="1.1"/><circle cx="282.9" cy="97.4" r="3.1" stroke-width="1.1"/><circle cx="262.7" cy="183.4" r="1.7" stroke-width="1.1"/><circle cx="314.7" cy="161.5" r="1.8" stroke-width="1.1"/><circle cx="308.5" cy="136.0" r="1.5" stroke-width="1.1"/><circle cx="208.2" cy="191.9" r="3.1" stroke-width="1.1"/><circle cx="215.5" cy="209.4" r="3.4" stroke-width="1.1"/><circle cx="189.1" cy="135.6" r="2.5" stroke-width="1.1"/><circle cx="321.8" cy="121.0" r="3.3" stroke-width="1.1"/><circle cx="327.5" cy="130.9" r="2.2" stroke-width="1.1"/><circle cx="253.0" cy="172.4" r="2.5" stroke-width="1.1"/><circle cx="260.7" cy="168.7" r="3.3" stroke-width="1.1"/><circle cx="250.4" cy="139.3" r="2.8" stroke-width="1.1"/><circle cx="197.1" cy="119.0" r="3.4" stroke-width="1.1"/><circle cx="253.2" cy="157.6" r="1.2" stroke-width="1.1"/><circle cx="232.2" cy="162.5" r="1.2" stroke-width="1.1"/><circle cx="271.9" cy="170.6" r="1.3" stroke-width="1.1"/><circle cx="274.2" cy="144.7" r="2.7" stroke-width="1.1"/><circle cx="219.8" cy="182.3" r="2.8" stroke-width="1.1"/><circle cx="199.7" cy="143.2" r="2.5" stroke-width="1.1"/><circle cx="213.4" cy="128.8" r="1.9" stroke-width="1.1"/><circle cx="223.1" cy="164.9" r="1.9" stroke-width="1.1"/><circle cx="224.7" cy="192.5" r="1.3" stroke-width="1.1"/><circle cx="262.7" cy="186.7" r="1.9" stroke-width="1.1"/><circle cx="194.1" cy="197.4" r="1.7" stroke-width="1.1"/><circle cx="187.1" cy="139.9" r="2.7" stroke-width="1.1"/><circle cx="170.2" cy="122.2" r="1.9" stroke-width="1.1"/><circle cx="315.0" cy="140.4" r="3.1" stroke-width="1.1"/><circle cx="183.5" cy="124.5" r="2.6" stroke-width="1.1"/><circle cx="325.2" cy="142.4" r="1.7" stroke-width="1.1"/><circle cx="173.9" cy="154.6" r="1.6" stroke-width="1.1"/><circle cx="309.7" cy="202.8" r="1.6" stroke-width="1.1"/><circle cx="205.2" cy="197.9" r="2.6" stroke-width="1.1"/><circle cx="309.6" cy="125.9" r="1.5" stroke-width="1.1"/><circle cx="207.8" cy="195.8" r="1.8" stroke-width="1.1"/><circle cx="218.6" cy="137.0" r="2.1" stroke-width="1.1"/><circle cx="231.1" cy="215.6" r="1.5" stroke-width="1.1"/><circle cx="236.0" cy="220.2" r="3.2" stroke-width="1.1"/><circle cx="194.0" cy="188.3" r="3.0" stroke-width="1.1"/><circle cx="281.3" cy="153.0" r="1.8" stroke-width="1.1"/><circle cx="217.5" cy="107.5" r="1.3" stroke-width="1.1"/><circle cx="266.6" cy="116.8" r="3.0" stroke-width="1.1"/><circle cx="297.6" cy="98.8" r="1.9" stroke-width="1.1"/><circle cx="281.3" cy="153.9" r="2.1" stroke-width="1.1"/><circle cx="335.9" cy="167.5" r="2.0" stroke-width="1.1"/><circle cx="200.0" cy="206.4" r="2.2" stroke-width="1.1"/><circle cx="304.9" cy="126.9" r="1.6" stroke-width="1.1"/><circle cx="255.9" cy="199.4" r="1.6" stroke-width="1.1"/><circle cx="309.6" cy="200.5" r="1.2" stroke-width="1.1"/><circle cx="274.5" cy="206.6" r="1.3" stroke-width="1.1"/><circle cx="203.7" cy="113.9" r="2.4" stroke-width="1.1"/><circle cx="233.8" cy="145.8" r="2.9" stroke-width="1.1"/><circle cx="249.4" cy="121.3" r="1.9" stroke-width="1.1"/><circle cx="219.6" cy="172.9" r="2.5" stroke-width="1.1"/><circle cx="221.4" cy="101.8" r="1.9" stroke-width="1.1"/><circle cx="174.5" cy="158.7" r="2.8" stroke-width="1.1"/><circle cx="225.3" cy="84.5" r="1.6" stroke-width="1.1"/><circle cx="223.9" cy="166.3" r="2.9" stroke-width="1.1"/><circle cx="225.3" cy="197.0" r="2.6" stroke-width="1.1"/><circle cx="235.5" cy="130.1" r="2.3" stroke-width="1.1"/><circle cx="289.2" cy="137.6" r="2.7" stroke-width="1.1"/><circle cx="241.2" cy="110.2" r="2.4" stroke-width="1.1"/><circle cx="234.1" cy="138.4" r="3.1" stroke-width="1.1"/><circle cx="335.4" cy="130.4" r="3.2" stroke-width="1.1"/><circle cx="306.6" cy="112.9" r="2.2" stroke-width="1.1"/><circle cx="281.1" cy="210.4" r="2.9" stroke-width="1.1"/><circle cx="282.2" cy="186.5" r="2.4" stroke-width="1.1"/><circle cx="170.4" cy="163.7" r="1.2" stroke-width="1.1"/><circle cx="178.4" cy="192.8" r="1.3" stroke-width="1.1"/><circle cx="283.4" cy="202.4" r="3.3" stroke-width="1.1"/><circle cx="264.7" cy="196.6" r="1.3" stroke-width="1.1"/><circle cx="301.9" cy="151.8" r="2.8" stroke-width="1.1"/><circle cx="214.2" cy="160.0" r="3.0" stroke-width="1.1"/><circle cx="197.9" cy="100.0" r="1.7" stroke-width="1.1"/><circle cx="272.0" cy="189.6" r="2.1" stroke-width="1.1"/><circle cx="222.8" cy="133.9" r="2.0" stroke-width="1.1"/><circle cx="232.8" cy="85.0" r="2.3" stroke-width="1.1"/><circle cx="298.0" cy="97.1" r="2.7" stroke-width="1.1"/><circle cx="299.7" cy="177.1" r="2.3" stroke-width="1.1"/><circle cx="245.8" cy="172.3" r="3.2" stroke-width="1.1"/><circle cx="252.4" cy="141.1" r="2.8" stroke-width="1.1"/><circle cx="186.8" cy="113.7" r="1.6" stroke-width="1.1"/><circle cx="266.0" cy="121.1" r="1.7" stroke-width="1.1"/><circle cx="208.6" cy="182.0" r="2.1" stroke-width="1.1"/><circle cx="319.0" cy="163.2" r="1.8" stroke-width="1.1"/><circle cx="244.9" cy="131.7" r="1.6" stroke-width="1.1"/><circle cx="221.4" cy="122.2" r="2.9" stroke-width="1.1"/><circle cx="245.0" cy="165.4" r="2.2" stroke-width="1.1"/><circle cx="260.3" cy="147.1" r="2.8" stroke-width="1.1"/><circle cx="319.6" cy="134.4" r="2.8" stroke-width="1.1"/><circle cx="340.1" cy="144.9" r="1.7" stroke-width="1.1"/><circle cx="196.5" cy="184.0" r="2.7" stroke-width="1.1"/><circle cx="197.9" cy="101.6" r="1.8" stroke-width="1.1"/><circle cx="187.1" cy="181.9" r="3.1" stroke-width="1.1"/><circle cx="321.3" cy="120.9" r="2.1" stroke-width="1.1"/><circle cx="207.8" cy="127.6" r="2.5" stroke-width="1.1"/><circle cx="216.3" cy="140.1" r="2.3" stroke-width="1.1"/><circle cx="191.6" cy="163.3" r="3.3" stroke-width="1.1"/><circle cx="227.4" cy="156.9" r="1.5" stroke-width="1.1"/><circle cx="204.4" cy="175.8" r="1.4" stroke-width="1.1"/><circle cx="224.1" cy="192.5" r="2.9" stroke-width="1.1"/><circle cx="208.5" cy="177.4" r="2.6" stroke-width="1.1"/><circle cx="309.6" cy="113.4" r="2.9" stroke-width="1.1"/><circle cx="256.2" cy="89.7" r="2.3" stroke-width="1.1"/><circle cx="219.7" cy="184.0" r="2.7" stroke-width="1.1"/><circle cx="262.1" cy="100.4" r="2.6" stroke-width="1.1"/><circle cx="274.9" cy="99.9" r="3.2" stroke-width="1.1"/><circle cx="279.8" cy="91.2" r="3.3" stroke-width="1.1"/><circle cx="178.0" cy="123.7" r="2.8" stroke-width="1.1"/><circle cx="268.3" cy="158.6" r="2.6" stroke-width="1.1"/><circle cx="240.6" cy="120.7" r="1.6" stroke-width="1.1"/><circle cx="299.4" cy="156.7" r="2.8" stroke-width="1.1"/><circle cx="221.1" cy="113.5" r="2.0" stroke-width="1.1"/><circle cx="249.9" cy="110.6" r="2.9" stroke-width="1.1"/><circle cx="220.1" cy="123.9" r="2.1" stroke-width="1.1"/><circle cx="257.2" cy="192.4" r="2.0" stroke-width="1.1"/><circle cx="203.6" cy="87.5" r="1.4" stroke-width="1.1"/><circle cx="304.2" cy="185.5" r="1.6" stroke-width="1.1"/><circle cx="187.5" cy="137.0" r="2.8" stroke-width="1.1"/><circle cx="311.5" cy="188.8" r="2.5" stroke-width="1.1"/><circle cx="179.0" cy="134.2" r="1.6" stroke-width="1.1"/><circle cx="254.5" cy="160.7" r="1.6" stroke-width="1.1"/><circle cx="199.5" cy="193.9" r="1.3" stroke-width="1.1"/><circle cx="259.4" cy="163.0" r="2.6" stroke-width="1.1"/><circle cx="209.3" cy="206.2" r="2.3" stroke-width="1.1"/><circle cx="269.1" cy="185.4" r="1.2" stroke-width="1.1"/><circle cx="302.6" cy="175.3" r="2.3" stroke-width="1.1"/><circle cx="253.7" cy="143.8" r="1.6" stroke-width="1.1"/><circle cx="249.1" cy="172.8" r="2.2" stroke-width="1.1"/><circle cx="306.9" cy="169.2" r="1.3" stroke-width="1.1"/><circle cx="221.3" cy="108.4" r="1.4" stroke-width="1.1"/><circle cx="256.7" cy="217.1" r="1.9" stroke-width="1.1"/><circle cx="322.4" cy="180.4" r="1.5" stroke-width="1.1"/><circle cx="319.9" cy="165.8" r="3.2" stroke-width="1.1"/><circle cx="291.8" cy="187.4" r="2.0" stroke-width="1.1"/><circle cx="320.6" cy="140.2" r="2.9" stroke-width="1.1"/><circle cx="246.0" cy="89.0" r="1.3" stroke-width="1.1"/><circle cx="181.8" cy="149.6" r="2.7" stroke-width="1.1"/><circle cx="256.4" cy="137.8" r="2.6" stroke-width="1.1"/><circle cx="210.3" cy="144.4" r="2.9" stroke-width="1.1"/><circle cx="229.5" cy="100.2" r="3.2" stroke-width="1.1"/><circle cx="292.5" cy="129.2" r="2.0" stroke-width="1.1"/><circle cx="254.8" cy="165.0" r="1.7" stroke-width="1.1"/><circle cx="138.7" cy="123.2" r="1.7" stroke-width="1.1"/><circle cx="106.9" cy="143.5" r="1.3" stroke-width="1.1"/><circle cx="99.4" cy="120.6" r="1.3" stroke-width="1.1"/><circle cx="99.2" cy="146.9" r="1.7" stroke-width="1.1"/><circle cx="134.6" cy="116.0" r="1.6" stroke-width="1.1"/><circle cx="148.2" cy="129.1" r="1.2" stroke-width="1.1"/><circle cx="130.4" cy="139.0" r="1.2" stroke-width="1.1"/><circle cx="100.7" cy="168.8" r="1.4" stroke-width="1.1"/><circle cx="139.0" cy="148.3" r="2.5" stroke-width="1.1"/><circle cx="130.7" cy="138.9" r="1.1" stroke-width="1.1"/><circle cx="133.5" cy="187.6" r="1.9" stroke-width="1.1"/><circle cx="98.2" cy="114.4" r="1.1" stroke-width="1.1"/><circle cx="100.8" cy="163.0" r="2.4" stroke-width="1.1"/><circle cx="145.7" cy="185.3" r="1.1" stroke-width="1.1"/><circle cx="147.2" cy="118.8" r="1.5" stroke-width="1.1"/><circle cx="142.2" cy="120.9" r="1.6" stroke-width="1.1"/><circle cx="146.3" cy="125.6" r="2.2" stroke-width="1.1"/><circle cx="136.2" cy="177.2" r="1.9" stroke-width="1.1"/><circle cx="146.0" cy="140.3" r="1.7" stroke-width="1.1"/><circle cx="118.1" cy="150.0" r="1.2" stroke-width="1.1"/><circle cx="135.0" cy="113.8" r="1.7" stroke-width="1.1"/><circle cx="137.4" cy="164.8" r="1.2" stroke-width="1.1"/><circle cx="143.4" cy="147.1" r="2.4" stroke-width="1.1"/>
</svg>